<svg width="200" height="200" viewBox="0 0 200 200" fill="none" xmlns="http://www.w3.org/2000/svg">
<path d="M150.307 65.0903L136.241 65.0903L123.019 65.0903C121.645 65.0903 120.537 66.2549 120.537 67.6991V125.628C120.537 125.71 120.426 133.734 120.138 138.474C118.387 150.051 112.283 155.222 100.394 155.222C88.5063 155.222 82.4126 150.063 80.6842 138.719C80.3629 133.734 80.2632 125.71 80.2632 125.663V67.6991C80.2632 66.2549 79.1442 65.0903 77.7814 65.0903L64.3462 65.0903L50.4818 65.0903C49.119 65.0903 48 66.2549 48 67.6991V125.652C48 126.024 48.0222 134.759 49.2077 145.171C51.0247 157.12 56.9632 168.033 62.0487 173.553C65.3614 177.129 77.8922 188.822 100.394 188.822C122.908 188.822 135.427 177.129 138.74 173.553C143.826 168.045 149.764 157.132 151.592 145.078C152.789 134.748 152.8 126.013 152.8 125.652V67.6991C152.797 67.0061 148.341 75.4966 147.873 75.0077C147.406 74.5188 150.966 65.0903 150.307 65.0903Z" fill="#0E6C88"/>
<path d="M65.5793 47.3751C94.9734 47.3751 100.4 36.7172 100.4 11C100.4 36.7172 105.827 47.3751 135.221 47.3751C105.827 47.3751 100.4 52.0992 100.4 119.181C100.4 52.0992 94.9734 47.3751 65.5793 47.3751Z" fill="#FD8027"/>
</svg>
