<svg width="400" height="300" viewBox="0 0 400 300" fill="none" xmlns="http://www.w3.org/2000/svg">
<path d="M9.87466 284V253.2H17.0027V284H9.87466ZM38.2162 259.976C40.0935 259.976 41.7655 260.357 43.2322 261.12C44.7282 261.853 45.9015 262.997 46.7522 264.552C47.6028 266.077 48.0282 268.043 48.0282 270.448V284H41.1642V271.504C41.1642 269.597 40.7388 268.189 39.8882 267.28C39.0668 266.371 37.8935 265.916 36.3682 265.916C35.2828 265.916 34.3002 266.151 33.4202 266.62C32.5695 267.06 31.8948 267.749 31.3962 268.688C30.9268 269.627 30.6922 270.829 30.6922 272.296V284H23.8282V260.328H30.3842V266.884L29.1522 264.904C30.0028 263.32 31.2202 262.103 32.8042 261.252C34.3882 260.401 36.1922 259.976 38.2162 259.976ZM62.214 284.352C60.19 284.352 58.2394 284.117 56.362 283.648C54.514 283.149 53.0474 282.533 51.962 281.8L54.25 276.872C55.3354 277.547 56.6114 278.104 58.078 278.544C59.574 278.955 61.0407 279.16 62.478 279.16C64.062 279.16 65.1767 278.969 65.822 278.588C66.4967 278.207 66.834 277.679 66.834 277.004C66.834 276.447 66.57 276.036 66.042 275.772C65.5434 275.479 64.8687 275.259 64.018 275.112C63.1674 274.965 62.2287 274.819 61.202 274.672C60.2047 274.525 59.1927 274.335 58.166 274.1C57.1394 273.836 56.2007 273.455 55.35 272.956C54.4994 272.457 53.81 271.783 53.282 270.932C52.7834 270.081 52.534 268.981 52.534 267.632C52.534 266.136 52.9594 264.816 53.81 263.672C54.69 262.528 55.9514 261.633 57.594 260.988C59.2367 260.313 61.202 259.976 63.49 259.976C65.1034 259.976 66.746 260.152 68.418 260.504C70.09 260.856 71.4834 261.369 72.598 262.044L70.31 266.928C69.166 266.253 68.0074 265.799 66.834 265.564C65.69 265.3 64.5754 265.168 63.49 265.168C61.9647 265.168 60.85 265.373 60.146 265.784C59.442 266.195 59.09 266.723 59.09 267.368C59.09 267.955 59.3394 268.395 59.838 268.688C60.366 268.981 61.0554 269.216 61.906 269.392C62.7567 269.568 63.6807 269.729 64.678 269.876C65.7047 269.993 66.7314 270.184 67.758 270.448C68.7847 270.712 69.7087 271.093 70.53 271.592C71.3807 272.061 72.07 272.721 72.598 273.572C73.126 274.393 73.39 275.479 73.39 276.828C73.39 278.295 72.95 279.6 72.07 280.744C71.19 281.859 69.914 282.739 68.242 283.384C66.5994 284.029 64.59 284.352 62.214 284.352ZM77.625 284V260.328H84.489V284H77.625ZM81.057 257.028C79.7957 257.028 78.769 256.661 77.977 255.928C77.185 255.195 76.789 254.285 76.789 253.2C76.789 252.115 77.185 251.205 77.977 250.472C78.769 249.739 79.7957 249.372 81.057 249.372C82.3184 249.372 83.345 249.724 84.137 250.428C84.929 251.103 85.325 251.983 85.325 253.068C85.325 254.212 84.929 255.165 84.137 255.928C83.3744 256.661 82.3477 257.028 81.057 257.028ZM101.991 292.888C99.7621 292.888 97.6061 292.609 95.5234 292.052C93.4701 291.524 91.7541 290.717 90.3754 289.632L93.1034 284.704C94.1007 285.525 95.3621 286.171 96.8874 286.64C98.4421 287.139 99.9674 287.388 101.463 287.388C103.898 287.388 105.658 286.845 106.743 285.76C107.858 284.675 108.415 283.061 108.415 280.92V277.356L108.855 271.416L108.767 265.432V260.328H115.279V280.04C115.279 284.44 114.135 287.681 111.847 289.764C109.559 291.847 106.274 292.888 101.991 292.888ZM100.935 282.856C98.7354 282.856 96.7407 282.387 94.9514 281.448C93.1914 280.48 91.7687 279.145 90.6834 277.444C89.6274 275.713 89.0994 273.704 89.0994 271.416C89.0994 269.099 89.6274 267.089 90.6834 265.388C91.7687 263.657 93.1914 262.323 94.9514 261.384C96.7407 260.445 98.7354 259.976 100.935 259.976C102.93 259.976 104.69 260.387 106.215 261.208C107.741 262 108.929 263.247 109.779 264.948C110.63 266.62 111.055 268.776 111.055 271.416C111.055 274.027 110.63 276.183 109.779 277.884C108.929 279.556 107.741 280.803 106.215 281.624C104.69 282.445 102.93 282.856 100.935 282.856ZM102.299 277.224C103.502 277.224 104.573 276.989 105.511 276.52C106.45 276.021 107.183 275.332 107.711 274.452C108.239 273.572 108.503 272.56 108.503 271.416C108.503 270.243 108.239 269.231 107.711 268.38C107.183 267.5 106.45 266.825 105.511 266.356C104.573 265.857 103.502 265.608 102.299 265.608C101.097 265.608 100.026 265.857 99.0874 266.356C98.1487 266.825 97.4007 267.5 96.8434 268.38C96.3154 269.231 96.0514 270.243 96.0514 271.416C96.0514 272.56 96.3154 273.572 96.8434 274.452C97.4007 275.332 98.1487 276.021 99.0874 276.52C100.026 276.989 101.097 277.224 102.299 277.224ZM136.056 259.976C137.933 259.976 139.605 260.357 141.072 261.12C142.568 261.853 143.741 262.997 144.592 264.552C145.443 266.077 145.868 268.043 145.868 270.448V284H139.004V271.504C139.004 269.597 138.579 268.189 137.728 267.28C136.907 266.371 135.733 265.916 134.208 265.916C133.123 265.916 132.14 266.151 131.26 266.62C130.409 267.06 129.735 267.749 129.236 268.688C128.767 269.627 128.532 270.829 128.532 272.296V284H121.668V251.352H128.532V266.884L126.992 264.904C127.843 263.32 129.06 262.103 130.644 261.252C132.228 260.401 134.032 259.976 136.056 259.976ZM161.77 284.352C158.983 284.352 156.813 283.648 155.258 282.24C153.703 280.803 152.926 278.676 152.926 275.86V255.092H159.79V275.772C159.79 276.769 160.054 277.547 160.582 278.104C161.11 278.632 161.829 278.896 162.738 278.896C163.823 278.896 164.747 278.603 165.51 278.016L167.358 282.856C166.654 283.355 165.803 283.736 164.806 284C163.838 284.235 162.826 284.352 161.77 284.352ZM149.274 266.136V260.856H165.686V266.136H149.274ZM179.175 284.352C177.151 284.352 175.2 284.117 173.323 283.648C171.475 283.149 170.008 282.533 168.923 281.8L171.211 276.872C172.296 277.547 173.572 278.104 175.039 278.544C176.535 278.955 178.002 279.16 179.439 279.16C181.023 279.16 182.138 278.969 182.783 278.588C183.458 278.207 183.795 277.679 183.795 277.004C183.795 276.447 183.531 276.036 183.003 275.772C182.504 275.479 181.83 275.259 180.979 275.112C180.128 274.965 179.19 274.819 178.163 274.672C177.166 274.525 176.154 274.335 175.127 274.1C174.1 273.836 173.162 273.455 172.311 272.956C171.46 272.457 170.771 271.783 170.243 270.932C169.744 270.081 169.495 268.981 169.495 267.632C169.495 266.136 169.92 264.816 170.771 263.672C171.651 262.528 172.912 261.633 174.555 260.988C176.198 260.313 178.163 259.976 180.451 259.976C182.064 259.976 183.707 260.152 185.379 260.504C187.051 260.856 188.444 261.369 189.559 262.044L187.271 266.928C186.127 266.253 184.968 265.799 183.795 265.564C182.651 265.3 181.536 265.168 180.451 265.168C178.926 265.168 177.811 265.373 177.107 265.784C176.403 266.195 176.051 266.723 176.051 267.368C176.051 267.955 176.3 268.395 176.799 268.688C177.327 268.981 178.016 269.216 178.867 269.392C179.718 269.568 180.642 269.729 181.639 269.876C182.666 269.993 183.692 270.184 184.719 270.448C185.746 270.712 186.67 271.093 187.491 271.592C188.342 272.061 189.031 272.721 189.559 273.572C190.087 274.393 190.351 275.479 190.351 276.828C190.351 278.295 189.911 279.6 189.031 280.744C188.151 281.859 186.875 282.739 185.203 283.384C183.56 284.029 181.551 284.352 179.175 284.352ZM222.271 284.528C219.895 284.528 217.68 284.147 215.627 283.384C213.603 282.592 211.843 281.477 210.347 280.04C208.851 278.603 207.678 276.916 206.827 274.98C206.006 273.044 205.595 270.917 205.595 268.6C205.595 266.283 206.006 264.156 206.827 262.22C207.678 260.284 208.851 258.597 210.347 257.16C211.872 255.723 213.647 254.623 215.671 253.86C217.695 253.068 219.91 252.672 222.315 252.672C224.984 252.672 227.39 253.141 229.531 254.08C231.702 254.989 233.52 256.339 234.987 258.128L230.411 262.352C229.355 261.149 228.182 260.255 226.891 259.668C225.6 259.052 224.192 258.744 222.667 258.744C221.23 258.744 219.91 258.979 218.707 259.448C217.504 259.917 216.463 260.592 215.583 261.472C214.703 262.352 214.014 263.393 213.515 264.596C213.046 265.799 212.811 267.133 212.811 268.6C212.811 270.067 213.046 271.401 213.515 272.604C214.014 273.807 214.703 274.848 215.583 275.728C216.463 276.608 217.504 277.283 218.707 277.752C219.91 278.221 221.23 278.456 222.667 278.456C224.192 278.456 225.6 278.163 226.891 277.576C228.182 276.96 229.355 276.036 230.411 274.804L234.987 279.028C233.52 280.817 231.702 282.181 229.531 283.12C227.39 284.059 224.97 284.528 222.271 284.528ZM239.316 284V260.328H245.872V267.016L244.948 265.08C245.652 263.408 246.782 262.147 248.336 261.296C249.891 260.416 251.783 259.976 254.012 259.976V266.312C253.719 266.283 253.455 266.268 253.22 266.268C252.986 266.239 252.736 266.224 252.472 266.224C250.595 266.224 249.07 266.767 247.896 267.852C246.752 268.908 246.18 270.565 246.18 272.824V284H239.316ZM268.254 284.352C266.288 284.352 264.528 283.971 262.974 283.208C261.448 282.445 260.26 281.287 259.41 279.732C258.559 278.148 258.134 276.139 258.134 273.704V260.328H264.998V272.692C264.998 274.657 265.408 276.109 266.23 277.048C267.08 277.957 268.268 278.412 269.794 278.412C270.85 278.412 271.788 278.192 272.61 277.752C273.431 277.283 274.076 276.579 274.546 275.64C275.015 274.672 275.25 273.469 275.25 272.032V260.328H282.114V284H275.602V277.488L276.79 279.38C275.998 281.023 274.824 282.269 273.27 283.12C271.744 283.941 270.072 284.352 268.254 284.352ZM299.913 284.352C297.361 284.352 295.087 283.839 293.093 282.812C291.098 281.756 289.529 280.304 288.385 278.456C287.27 276.608 286.713 274.511 286.713 272.164C286.713 269.788 287.27 267.691 288.385 265.872C289.529 264.024 291.098 262.587 293.093 261.56C295.087 260.504 297.361 259.976 299.913 259.976C302.406 259.976 304.577 260.504 306.425 261.56C308.273 262.587 309.637 264.068 310.517 266.004L305.193 268.864C304.577 267.749 303.799 266.928 302.861 266.4C301.951 265.872 300.954 265.608 299.869 265.608C298.695 265.608 297.639 265.872 296.701 266.4C295.762 266.928 295.014 267.676 294.457 268.644C293.929 269.612 293.665 270.785 293.665 272.164C293.665 273.543 293.929 274.716 294.457 275.684C295.014 276.652 295.762 277.4 296.701 277.928C297.639 278.456 298.695 278.72 299.869 278.72C300.954 278.72 301.951 278.471 302.861 277.972C303.799 277.444 304.577 276.608 305.193 275.464L310.517 278.368C309.637 280.275 308.273 281.756 306.425 282.812C304.577 283.839 302.406 284.352 299.913 284.352ZM314.34 284V260.328H321.204V284H314.34ZM317.772 257.028C316.511 257.028 315.484 256.661 314.692 255.928C313.9 255.195 313.504 254.285 313.504 253.2C313.504 252.115 313.9 251.205 314.692 250.472C315.484 249.739 316.511 249.372 317.772 249.372C319.033 249.372 320.06 249.724 320.852 250.428C321.644 251.103 322.04 251.983 322.04 253.068C322.04 254.212 321.644 255.165 320.852 255.928C320.089 256.661 319.063 257.028 317.772 257.028ZM341.566 284.352C339.484 284.352 337.694 283.912 336.198 283.032C334.702 282.152 333.558 280.817 332.766 279.028C331.974 277.209 331.578 274.921 331.578 272.164C331.578 269.377 331.989 267.089 332.81 265.3C333.661 263.511 334.834 262.176 336.33 261.296C337.826 260.416 339.572 259.976 341.566 259.976C343.796 259.976 345.79 260.475 347.55 261.472C349.34 262.469 350.748 263.877 351.774 265.696C352.83 267.515 353.358 269.671 353.358 272.164C353.358 274.628 352.83 276.769 351.774 278.588C350.748 280.407 349.34 281.829 347.55 282.856C345.79 283.853 343.796 284.352 341.566 284.352ZM327.574 284V251.352H334.438V265.124L333.998 272.12L334.13 279.16V284H327.574ZM340.378 278.72C341.522 278.72 342.534 278.456 343.414 277.928C344.324 277.4 345.042 276.652 345.57 275.684C346.128 274.687 346.406 273.513 346.406 272.164C346.406 270.785 346.128 269.612 345.57 268.644C345.042 267.676 344.324 266.928 343.414 266.4C342.534 265.872 341.522 265.608 340.378 265.608C339.234 265.608 338.208 265.872 337.298 266.4C336.389 266.928 335.67 267.676 335.142 268.644C334.614 269.612 334.35 270.785 334.35 272.164C334.35 273.513 334.614 274.687 335.142 275.684C335.67 276.652 336.389 277.4 337.298 277.928C338.208 278.456 339.234 278.72 340.378 278.72ZM357.953 284V251.352H364.817V284H357.953ZM382.936 284.352C380.237 284.352 377.861 283.824 375.808 282.768C373.784 281.712 372.214 280.275 371.1 278.456C369.985 276.608 369.428 274.511 369.428 272.164C369.428 269.788 369.97 267.691 371.056 265.872C372.17 264.024 373.681 262.587 375.588 261.56C377.494 260.504 379.65 259.976 382.056 259.976C384.373 259.976 386.456 260.475 388.304 261.472C390.181 262.44 391.662 263.848 392.748 265.696C393.833 267.515 394.376 269.7 394.376 272.252C394.376 272.516 394.361 272.824 394.332 273.176C394.302 273.499 394.273 273.807 394.244 274.1H375.016V270.096H390.636L387.996 271.284C387.996 270.052 387.746 268.981 387.248 268.072C386.749 267.163 386.06 266.459 385.18 265.96C384.3 265.432 383.273 265.168 382.1 265.168C380.926 265.168 379.885 265.432 378.976 265.96C378.096 266.459 377.406 267.177 376.908 268.116C376.409 269.025 376.16 270.111 376.16 271.372V272.428C376.16 273.719 376.438 274.863 376.996 275.86C377.582 276.828 378.389 277.576 379.416 278.104C380.472 278.603 381.704 278.852 383.112 278.852C384.373 278.852 385.473 278.661 386.412 278.28C387.38 277.899 388.26 277.327 389.052 276.564L392.704 280.524C391.618 281.756 390.254 282.709 388.612 283.384C386.969 284.029 385.077 284.352 382.936 284.352Z" fill="black" fill-opacity="0.9"/>
<path d="M154.213 57.1351C200.81 57.1351 209.412 40.3945 209.412 0C209.412 40.3945 218.014 57.1351 264.611 57.1351C218.014 57.1351 209.412 64.5552 209.412 169.921C209.412 64.5552 200.81 57.1351 154.213 57.1351Z" fill="#FD8027"/>
<path d="M176.603 89.8303L174.521 92.6057L171.438 100.328L176.603 96.7356V134.565C176.603 134.667 176.759 147.281 177.263 155.119C179.974 172.978 189.531 181.101 208.177 181.101C226.822 181.101 236.397 172.96 239.143 154.734C239.594 147.271 239.769 134.637 239.769 134.509V95.757L244.95 99.5637L242.72 93.5315L239.769 89.8283V89.382H290.371V134.546C290.371 135.116 290.353 148.867 288.477 165.13C285.609 184.108 276.295 201.289 268.319 209.962C263.124 215.591 243.487 234 208.177 234C172.884 234 153.23 215.591 148.034 209.962C140.058 201.271 130.744 184.09 127.895 165.278C126.035 148.886 126 135.134 126 134.546V89.382H176.603V89.8303Z" fill="#0E6C88"/>
</svg>
