<svg width="300" height="300" viewBox="0 0 300 300" fill="none" xmlns="http://www.w3.org/2000/svg">
<path d="M82.1865 68.5674C140.301 68.5674 151.03 48.4771 151.03 0C151.03 48.4771 161.759 68.5674 219.873 68.5674C161.759 68.5674 151.03 77.4722 151.03 203.921C151.03 77.4722 140.301 68.5674 82.1865 68.5674Z" fill="#FD8027"/>
<path d="M110.11 107.805L107.514 111.136L103.669 120.403L110.11 116.093V161.489C110.11 161.577 110.305 176.739 110.934 186.157C114.315 207.59 126.235 217.338 149.489 217.338C172.744 217.338 184.685 207.568 188.109 185.695C188.673 176.744 188.889 161.592 188.89 161.424V114.917L195.352 119.485L192.571 112.246L188.89 107.801V107.267H252V161.468C252 162.152 251.978 178.655 249.638 198.172C246.062 220.947 234.445 241.565 224.497 251.974C218.017 258.729 193.527 280.822 149.489 280.822C105.473 280.822 80.9605 258.729 74.4805 251.974C64.5329 241.543 52.9166 220.925 49.3623 198.348C47.0435 178.677 47 162.174 47 161.468V107.267H110.11V107.805Z" fill="#0E6C88"/>
</svg>
